<svg id="Слой_1" data-name="Слой 1" xmlns="http://www.w3.org/2000/svg" viewBox="0 0 175 175"><defs><style>.cls-1{fill:#b8c0ff;}.cls-2{fill:#fff;}</style></defs><circle class="cls-1" cx="87.5" cy="87.5" r="87.5"/><path class="cls-2" d="M155.92,97.82l-48.39,48.39a7.32,7.32,0,0,1-4.48,2.1,6.74,6.74,0,0,1-1.27,0,7.24,7.24,0,0,1-4.47-2.1L71.89,120.79a7.32,7.32,0,0,1,0-10.35l5.87-5.88a7.33,7.33,0,0,1,10.35,0l12.24,12.24a2.94,2.94,0,0,0,4.16,0L139.7,81.59a7.35,7.35,0,0,1,10.35,0l5.87,5.88A7.33,7.33,0,0,1,155.92,97.82Z" transform="translate(-26.4 -26.4)"/></svg>